<svg width="15" height="14" viewBox="0 0 15 14" fill="none" xmlns="http://www.w3.org/2000/svg">
<path d="M14.4124 6.5555C14.3569 6.41242 14.2736 6.2817 14.1673 6.17084L8.33159 0.342796C8.22276 0.234116 8.09357 0.147907 7.95139 0.0890901C7.8092 0.0302731 7.65681 0 7.50291 0C7.1921 0 6.89401 0.123308 6.67423 0.342796C6.56541 0.451476 6.47908 0.580498 6.42019 0.722494C6.3613 0.864491 6.33098 1.01668 6.33098 1.17038C6.33098 1.48078 6.45445 1.77847 6.67423 1.99796L10.5258 5.83282H1.66715C1.3576 5.83282 1.06073 5.95562 0.841851 6.17422C0.622968 6.39281 0.5 6.68929 0.5 6.99843C0.5 7.30757 0.622968 7.60404 0.841851 7.82264C1.06073 8.04123 1.3576 8.16404 1.66715 8.16404H10.5258L6.67423 11.9989C6.56484 12.1073 6.47801 12.2362 6.41875 12.3782C6.3595 12.5202 6.32899 12.6726 6.32899 12.8265C6.32899 12.9804 6.3595 13.1327 6.41875 13.2747C6.47801 13.4168 6.56484 13.5457 6.67423 13.6541C6.78273 13.7633 6.91182 13.85 7.05405 13.9092C7.19628 13.9684 7.34883 13.9988 7.50291 13.9988C7.65699 13.9988 7.80954 13.9684 7.95177 13.9092C8.094 13.85 8.22309 13.7633 8.33159 13.6541L14.1673 7.82601C14.2736 7.71516 14.3569 7.58444 14.4124 7.44136C14.5292 7.15758 14.5292 6.83928 14.4124 6.5555Z" fill="white"/>
</svg>
