<svg width="11" height="13" viewBox="0 0 11 13" fill="none" xmlns="http://www.w3.org/2000/svg">
<g id="&#240;&#159;&#166;&#134; icon &#34;chat-bubble-user&#34;">
<path id="Vector" d="M7.005 6.09199C7.27012 5.76063 7.416 5.34968 7.41917 4.92533C7.41917 4.41633 7.21697 3.92818 6.85706 3.56827C6.49714 3.20836 6.00899 3.00616 5.5 3.00616C4.99101 3.00616 4.50286 3.20836 4.14294 3.56827C3.78303 3.92818 3.58083 4.41633 3.58083 4.92533C3.584 5.34968 3.72988 5.76063 3.995 6.09199C3.47503 6.40842 3.06709 6.87959 2.82833 7.43949C2.79492 7.51053 2.77618 7.58758 2.77325 7.66604C2.77033 7.74449 2.78326 7.82272 2.81129 7.89606C2.83932 7.96939 2.88186 8.03631 2.93637 8.09281C2.99088 8.14931 3.05623 8.19422 3.12851 8.22486C3.20079 8.2555 3.27851 8.27124 3.35702 8.27113C3.43553 8.27101 3.5132 8.25505 3.58539 8.22421C3.65758 8.19336 3.72281 8.14826 3.77715 8.0916C3.8315 8.03495 3.87385 7.9679 3.90167 7.89449C4.03574 7.58109 4.25841 7.31367 4.54235 7.12507C4.82629 6.93647 5.15914 6.83489 5.5 6.83283C5.84186 6.83376 6.17596 6.9348 6.46104 7.12347C6.74612 7.31215 6.9697 7.58019 7.10417 7.89449C7.14882 7.99993 7.22352 8.08989 7.31895 8.15317C7.41439 8.21644 7.52633 8.25023 7.64083 8.25033C7.71889 8.24887 7.79601 8.23305 7.86833 8.20366C8.01059 8.14323 8.12305 8.02881 8.18101 7.88554C8.23898 7.74226 8.23772 7.58184 8.1775 7.43949C7.93721 6.87876 7.52714 6.40749 7.005 6.09199ZM5.5 5.66616C5.35092 5.66615 5.2052 5.62187 5.08133 5.53892C4.95746 5.45598 4.86102 5.33811 4.80424 5.20026C4.74746 5.06242 4.7329 4.91082 4.76241 4.76469C4.79193 4.61857 4.86418 4.4845 4.97 4.37949C5.07582 4.27449 5.21045 4.20329 5.3568 4.17491C5.50316 4.14654 5.65464 4.16228 5.79203 4.22013C5.92943 4.27798 6.04655 4.37533 6.12853 4.49985C6.21051 4.62436 6.25366 4.77042 6.2525 4.91949C6.25096 5.11805 6.171 5.30796 6.03005 5.44782C5.88909 5.58769 5.69857 5.66616 5.5 5.66616ZM9 0.666992H2C1.53587 0.666992 1.09075 0.851367 0.762563 1.17956C0.434375 1.50774 0.25 1.95286 0.25 2.41699V8.83366C0.25 9.29779 0.434375 9.74291 0.762563 10.0711C1.09075 10.3993 1.53587 10.5837 2 10.5837H3.51083L5.08583 12.1645C5.14034 12.2186 5.20498 12.2613 5.27605 12.2904C5.34713 12.3194 5.42323 12.3341 5.5 12.3337C5.63903 12.3337 5.7735 12.284 5.87917 12.1937L7.7575 10.5837H9C9.46413 10.5837 9.90925 10.3993 10.2374 10.0711C10.5656 9.74291 10.75 9.29779 10.75 8.83366V2.41699C10.75 1.95286 10.5656 1.50774 10.2374 1.17956C9.90925 0.851367 9.46413 0.666992 9 0.666992ZM9.58333 8.83366C9.58333 8.98837 9.52188 9.13674 9.41248 9.24614C9.30308 9.35553 9.15471 9.41699 9 9.41699H7.54167C7.40263 9.41698 7.26817 9.46663 7.1625 9.55699L5.52917 10.957L4.16417 9.58616C4.10966 9.53209 4.04502 9.48932 3.97395 9.46029C3.90287 9.43126 3.82677 9.41655 3.75 9.41699H2C1.84529 9.41699 1.69692 9.35553 1.58752 9.24614C1.47812 9.13674 1.41667 8.98837 1.41667 8.83366V2.41699C1.41667 2.26228 1.47812 2.11391 1.58752 2.00451C1.69692 1.89512 1.84529 1.83366 2 1.83366H9C9.15471 1.83366 9.30308 1.89512 9.41248 2.00451C9.52188 2.11391 9.58333 2.26228 9.58333 2.41699V8.83366Z" fill="white"/>
</g>
</svg>
