<svg width="12" height="13" viewBox="0 0 12 13" fill="none" xmlns="http://www.w3.org/2000/svg">
<g id="&#240;&#159;&#166;&#134; icon &#34;copy&#34;">
<path id="Vector" d="M11.8428 4.58996C11.836 4.53261 11.823 4.47612 11.8038 4.42142V4.36523C11.7726 4.30105 11.731 4.24205 11.6805 4.19045L7.78495 0.445081C7.73128 0.396526 7.66992 0.356491 7.60316 0.326478C7.58378 0.323831 7.56411 0.323831 7.54473 0.326478C7.47878 0.290111 7.40593 0.266767 7.33048 0.257812H4.70101C4.18443 0.257813 3.68901 0.455113 3.32374 0.806309C2.95846 1.15751 2.75326 1.63383 2.75326 2.1305V2.75473H2.104C1.58743 2.75473 1.09201 2.95203 0.726734 3.30322C0.361459 3.65442 0.15625 4.13074 0.15625 4.62741V10.8697C0.15625 11.3664 0.361459 11.8427 0.726734 12.1939C1.09201 12.5451 1.58743 12.7424 2.104 12.7424H7.29801C7.81459 12.7424 8.31001 12.5451 8.67528 12.1939C9.04056 11.8427 9.24577 11.3664 9.24577 10.8697V10.2455H9.89502C10.4116 10.2455 10.907 10.0482 11.2723 9.69697C11.6376 9.34577 11.8428 8.86945 11.8428 8.37278V4.62741C11.8428 4.62741 11.8428 4.62741 11.8428 4.58996ZM7.94727 2.38643L9.62883 4.00318H8.59652C8.42432 4.00318 8.25918 3.93742 8.13743 3.82035C8.01567 3.70328 7.94727 3.54451 7.94727 3.37895V2.38643ZM7.94727 10.8697C7.94727 11.0352 7.87886 11.194 7.7571 11.3111C7.63535 11.4282 7.47021 11.4939 7.29801 11.4939H2.104C1.93181 11.4939 1.76667 11.4282 1.64491 11.3111C1.52316 11.194 1.45475 11.0352 1.45475 10.8697V4.62741C1.45475 4.46185 1.52316 4.30308 1.64491 4.18601C1.76667 4.06895 1.93181 4.00318 2.104 4.00318H2.75326V8.37278C2.75326 8.86945 2.95846 9.34577 3.32374 9.69697C3.68901 10.0482 4.18443 10.2455 4.70101 10.2455H7.94727V10.8697ZM10.5443 8.37278C10.5443 8.53834 10.4759 8.69711 10.3541 8.81418C10.2324 8.93124 10.0672 8.99701 9.89502 8.99701H4.70101C4.52882 8.99701 4.36368 8.93124 4.24192 8.81418C4.12016 8.69711 4.05176 8.53834 4.05176 8.37278V2.1305C4.05176 1.96494 4.12016 1.80617 4.24192 1.6891C4.36368 1.57204 4.52882 1.50627 4.70101 1.50627H6.64876V3.37895C6.64876 3.87562 6.85397 4.35195 7.21925 4.70314C7.58452 5.05434 8.07994 5.25164 8.59652 5.25164H10.5443V8.37278Z" fill="#353849"/>
</g>
</svg>
