<svg width="32" height="32" viewBox="0 0 32 32" fill="none" xmlns="http://www.w3.org/2000/svg">
<g clip-path="url(#clip0_110_92)">
<path d="M27.0895 5.82643C25.0494 4.89043 22.8628 4.2011 20.5761 3.80643C20.5348 3.79843 20.4935 3.81843 20.4708 3.85577C20.1894 4.35577 19.8774 5.0091 19.6601 5.5211C17.2001 5.1531 14.7535 5.1531 12.3441 5.5211C12.1268 4.9971 11.8028 4.35577 11.5214 3.85577C11.4988 3.81843 11.4574 3.79977 11.4161 3.80643C9.13078 4.19977 6.94412 4.8891 4.90278 5.82643C4.88545 5.8331 4.86945 5.84643 4.86012 5.86243C0.712116 12.0598 -0.425217 18.1051 0.132116 24.0758C0.134783 24.1051 0.150783 24.1331 0.17345 24.1504C2.91078 26.1611 5.56145 27.3811 8.16412 28.1891C8.20545 28.2024 8.24945 28.1864 8.27612 28.1518C8.89212 27.3118 9.44012 26.4251 9.91078 25.4931C9.93878 25.4384 9.91212 25.3731 9.85478 25.3518C8.98412 25.0211 8.15612 24.6184 7.35878 24.1624C7.29612 24.1251 7.29078 24.0358 7.34812 23.9918C7.51612 23.8664 7.68412 23.7358 7.84412 23.6038C7.87345 23.5798 7.91345 23.5744 7.94812 23.5904C13.1854 25.9811 18.8548 25.9811 24.0294 23.5904C24.0641 23.5744 24.1041 23.5784 24.1348 23.6038C24.2948 23.7358 24.4628 23.8678 24.6321 23.9931C24.6908 24.0358 24.6868 24.1264 24.6228 24.1638C23.8254 24.6291 22.9974 25.0238 22.1255 25.3518C22.0681 25.3731 22.0441 25.4398 22.0708 25.4944C22.5508 26.4251 23.1001 27.3118 23.7041 28.1518C23.7295 28.1878 23.7748 28.2024 23.8161 28.1904C26.4308 27.3811 29.0828 26.1611 31.8188 24.1518C31.8428 24.1344 31.8575 24.1078 31.8601 24.0784C32.5268 17.1758 30.7428 11.1798 27.1295 5.8651C27.1228 5.84643 27.1068 5.8331 27.0895 5.82643ZM10.6934 20.4411C9.11612 20.4411 7.81745 18.9931 7.81745 17.2158C7.81745 15.4384 9.09078 13.9904 10.6934 13.9904C12.3081 13.9904 13.5948 15.4504 13.5694 17.2158C13.5694 18.9944 12.2948 20.4411 10.6934 20.4411ZM21.3268 20.4411C19.7508 20.4411 18.4508 18.9931 18.4508 17.2158C18.4508 15.4384 19.7241 13.9904 21.3268 13.9904C22.9415 13.9904 24.2281 15.4504 24.2028 17.2158C24.2028 18.9944 22.9415 20.4411 21.3268 20.4411Z" fill="black"/>
</g>
<defs>
<clipPath id="clip0_110_92">
<rect width="32" height="32" fill="white"/>
</clipPath>
</defs>
</svg>
