<svg width="24" height="26" viewBox="0 0 24 26" fill="none" xmlns="http://www.w3.org/2000/svg">
<path d="M23.1242 0.391711C23.0113 0.268321 22.874 0.169771 22.7211 0.102332C22.5681 0.0348939 22.4027 4.3724e-05 22.2355 0H1.20454C1.03735 6.342e-05 0.872003 0.034917 0.719015 0.102344C0.566027 0.169772 0.428745 0.268297 0.315898 0.391655C0.203051 0.515013 0.117108 0.660505 0.0635365 0.818877C0.00996459 0.977249 -0.0100645 1.14504 0.00472249 1.31157L1.8356 21.7885C1.85732 22.0325 1.95296 22.264 2.10975 22.4522C2.26655 22.6405 2.47703 22.7764 2.7131 22.8418L11.3859 25.2509C11.4909 25.2801 11.5993 25.295 11.7082 25.295C11.8169 25.2949 11.9251 25.2802 12.03 25.2515L20.7263 22.8424C20.9625 22.7769 21.173 22.6409 21.3299 22.4526C21.4868 22.2642 21.5826 22.0326 21.6044 21.7885L23.4353 1.31157C23.4501 1.14505 23.4301 0.977267 23.3765 0.818901C23.323 0.660535 23.237 0.515052 23.1242 0.391711ZM19.2789 20.7433L11.7088 22.8406L4.16117 20.7439L2.52142 2.40904H20.9186L19.2789 20.7433ZM6.6849 13.2497H14.9901L14.596 17.1897L11.503 18.2943L7.69239 16.9333C7.54335 16.8799 7.38524 16.8563 7.2271 16.864C7.06896 16.8718 6.91389 16.9106 6.77076 16.9783C6.62762 17.0459 6.49924 17.1412 6.39294 17.2585C6.28664 17.3759 6.20451 17.513 6.15126 17.6621C6.098 17.8112 6.07466 17.9694 6.08256 18.1275C6.09046 18.2856 6.12946 18.4406 6.19732 18.5837C6.26518 18.7267 6.36058 18.855 6.47805 18.9612C6.59552 19.0673 6.73276 19.1493 6.88193 19.2024L11.0978 20.708C11.3599 20.8013 11.6461 20.8013 11.9082 20.708L16.1241 19.2024C16.3387 19.1256 16.5272 18.9896 16.6677 18.81C16.8081 18.6304 16.8947 18.4147 16.9175 18.1878L17.5197 12.1652C17.5364 11.9978 17.5178 11.8287 17.4651 11.6689C17.4125 11.509 17.3269 11.362 17.214 11.2372C17.1011 11.1125 16.9633 11.0127 16.8095 10.9444C16.6557 10.8761 16.4893 10.8408 16.3211 10.8407H7.77474L7.41361 7.22713H16.9233C17.2428 7.22713 17.5491 7.10023 17.775 6.87434C18.0009 6.64845 18.1278 6.34207 18.1278 6.02261C18.1278 5.70315 18.0009 5.39678 17.775 5.17089C17.5491 4.94499 17.2428 4.81809 16.9233 4.81809H6.08261C5.91434 4.81819 5.74795 4.85353 5.59417 4.92183C5.44038 4.99013 5.30259 5.08987 5.18968 5.21464C5.07677 5.3394 4.99124 5.48643 4.93859 5.64625C4.88594 5.80607 4.86733 5.97515 4.88398 6.14259L5.48624 12.1652C5.51602 12.4624 5.65517 12.738 5.87666 12.9384C6.09815 13.1388 6.3862 13.2497 6.6849 13.2497Z" fill="#7B49D3"/>
</svg>
