<svg width="28" height="30" viewBox="0 0 28 30" fill="none" xmlns="http://www.w3.org/2000/svg">
<path d="M12.366 0.319601C12.7407 0.110034 13.1629 0 13.5922 0C14.0216 0 14.4437 0.110034 14.8185 0.319601C18.5523 2.4294 22.2863 4.53852 26.0204 6.64696C26.3715 6.84693 26.6639 7.13566 26.8683 7.48421C27.0728 7.83277 27.182 8.22891 27.1851 8.63297V21.3263C27.1784 21.7459 27.0586 22.1559 26.8383 22.513C26.618 22.8702 26.3054 23.1613 25.9334 23.3555C22.2119 25.4537 18.4912 27.5527 14.7714 29.6526C14.3897 29.8638 13.9583 29.9687 13.5222 29.9566C13.0861 29.9445 12.6613 29.8157 12.2918 29.5837C11.1761 28.9369 10.0597 28.2914 8.94266 27.6472C8.69793 27.5377 8.4781 27.3794 8.29662 27.182C8.43892 26.9902 8.69341 26.9663 8.90027 26.8825C9.35895 26.7187 9.80131 26.5123 10.2216 26.2661C10.2745 26.2349 10.3354 26.2201 10.3967 26.2238C10.458 26.2275 10.5168 26.2494 10.5656 26.2866C11.5196 26.8337 12.4653 27.3966 13.4225 27.9384C13.6268 28.0563 13.8335 27.8998 14.0081 27.8025C17.6601 25.7384 21.3133 23.6768 24.9678 21.6175C25.0331 21.585 25.0869 21.5335 25.1225 21.4698C25.158 21.4062 25.1735 21.3333 25.1669 21.2607C25.1695 17.0734 25.1699 12.8859 25.1682 8.69813C25.1748 8.61664 25.1559 8.5351 25.114 8.4649C25.072 8.3947 25.0092 8.33935 24.9343 8.30657C21.2257 6.21798 17.5179 4.12816 13.8109 2.03712C13.7467 1.99297 13.6706 1.96928 13.5926 1.96916C13.5147 1.96905 13.4385 1.99251 13.3741 2.03647C9.66618 4.12619 5.95883 6.2168 2.25207 8.30831C2.1768 8.34021 2.11354 8.39508 2.07131 8.46507C2.02908 8.53506 2.01003 8.61661 2.0169 8.69807C2.01755 12.8853 2.01755 17.073 2.0169 21.2612C2.01047 21.3335 2.02635 21.4061 2.06241 21.4691C2.09846 21.5321 2.15296 21.5825 2.21856 21.6136C3.20805 22.1748 4.19818 22.7339 5.18895 23.2911C5.46362 23.4608 5.77101 23.5707 6.09104 23.6136C6.41107 23.6564 6.73655 23.6313 7.04619 23.5397C7.3151 23.4384 7.5466 23.2574 7.70965 23.0207C7.8727 22.7841 7.9595 22.5033 7.9584 22.216C7.96351 18.0531 7.95584 13.8897 7.96224 9.7275C7.96113 9.68333 7.96938 9.63941 7.98644 9.59865C8.0035 9.55788 8.02898 9.52118 8.06122 9.49095C8.09346 9.46073 8.13173 9.43766 8.17351 9.42326C8.21529 9.40887 8.25965 9.40347 8.30366 9.40742C8.77909 9.40422 9.25516 9.40101 9.73061 9.4087C9.77694 9.41076 9.82232 9.42259 9.86376 9.44341C9.9052 9.46423 9.94178 9.49358 9.97109 9.52952C10.0004 9.56546 10.0218 9.60719 10.0339 9.65197C10.0459 9.69675 10.0484 9.74358 10.0411 9.78938C10.0392 13.9786 10.0462 18.1679 10.0379 22.357C10.0695 22.9261 9.948 23.4932 9.68592 23.9994C9.42383 24.5055 9.0308 24.932 8.54777 25.2346C7.90224 25.5353 7.19558 25.6817 6.48369 25.6622C5.77181 25.6426 5.07424 25.4577 4.4462 25.1219C3.35812 24.5788 2.31977 23.9379 1.251 23.3561C0.878721 23.1622 0.565865 22.8711 0.345616 22.5138C0.125368 22.1565 0.00594004 21.7462 0 21.3265V8.63297C0.00308833 8.22076 0.116418 7.81688 0.32823 7.46323C0.540043 7.10958 0.842624 6.81905 1.20458 6.62178C4.92547 4.5219 8.64594 2.42117 12.366 0.319601Z" fill="#7390E5"/>
<path d="M15.6116 9.11289C17.2558 8.90008 18.9267 9.15575 20.4321 9.85048C20.9774 10.1759 21.4283 10.6382 21.7401 11.1915C22.0519 11.7448 22.2137 12.3699 22.2095 13.005C22.1884 13.0845 22.1392 13.1537 22.0712 13.1998C22.0031 13.246 21.9207 13.266 21.839 13.2563C21.3682 13.2556 20.8973 13.2627 20.4264 13.2531C20.3358 13.2474 20.2506 13.208 20.1875 13.1427C20.1244 13.0773 20.0881 12.9908 20.0855 12.9C20.0322 12.5925 19.9125 12.3003 19.7348 12.0436C19.5572 11.787 19.3258 11.5721 19.0568 11.4139C18.1611 11.0582 17.194 10.9198 16.2346 11.01C15.5276 10.988 14.8284 11.1621 14.2143 11.5131C14.0027 11.6771 13.8479 11.9032 13.7715 12.1597C13.6951 12.4163 13.7011 12.6903 13.7886 12.9432C13.9399 13.3027 14.3548 13.4187 14.6943 13.5256C16.65 14.0371 18.7225 13.9862 20.6409 14.6593C21.0529 14.7737 21.4332 14.9809 21.7527 15.2651C22.0722 15.5493 22.3223 15.9029 22.484 16.2988C22.6764 16.8604 22.7229 17.4617 22.6191 18.0462C22.5154 18.6307 22.2647 19.1792 21.8908 19.6403C21.2144 20.3426 20.3356 20.8162 19.377 20.995C18.1287 21.2485 16.8481 21.3028 15.5827 21.1561C14.3684 21.0868 13.2041 20.6488 12.2451 19.9005C11.8652 19.5515 11.5671 19.1228 11.3722 18.6452C11.1772 18.1676 11.0901 17.6528 11.1171 17.1377C11.1265 17.0549 11.1682 16.9792 11.2331 16.927C11.298 16.8747 11.3808 16.8502 11.4637 16.8586C11.9378 16.8548 12.412 16.8535 12.8861 16.8593C12.9301 16.8583 12.9738 16.8661 13.0147 16.8821C13.0556 16.8982 13.0929 16.9222 13.1245 16.9527C13.1561 16.9833 13.1813 17.0198 13.1986 17.0602C13.216 17.1006 13.2252 17.144 13.2256 17.1879C13.2488 17.4815 13.332 17.7673 13.4699 18.0276C13.6079 18.2878 13.7977 18.517 14.0277 18.701C15.043 19.2008 16.1776 19.4074 17.304 19.2976C18.2465 19.3695 19.1874 19.1393 19.9903 18.6406C20.1753 18.46 20.3098 18.2342 20.3806 17.9856C20.4515 17.737 20.4561 17.4743 20.3942 17.2233C20.2789 16.8046 19.8409 16.6094 19.4646 16.4818C17.534 15.8711 15.4383 16.0927 13.5264 15.402C13.1253 15.2847 12.7544 15.0817 12.4394 14.8071C12.1243 14.5325 11.8725 14.1929 11.7014 13.8116C11.4816 13.2425 11.426 12.623 11.541 12.0238C11.656 11.4246 11.9371 10.8698 12.352 10.4225C13.256 9.62462 14.4069 9.16228 15.6116 9.11289Z" fill="#7390E5"/>
</svg>
