<svg width="30" height="30" viewBox="0 0 30 30" fill="none" xmlns="http://www.w3.org/2000/svg">
<path d="M25.562 25.5627H21.1166V18.6012C21.1166 16.941 21.0871 14.8048 18.8045 14.8048C16.4894 14.8048 16.1346 16.6128 16.1346 18.4814V25.5627H11.6907V11.2464H15.9587V13.2023H16.0178C16.8886 11.7151 18.5059 10.8266 20.2282 10.8902C24.7341 10.8902 25.5635 13.8542 25.5635 17.7083L25.562 25.5627ZM6.67472 9.28911C5.24959 9.28911 4.09501 8.13453 4.09501 6.70941C4.09501 5.28429 5.24959 4.1297 6.67472 4.1297C8.09984 4.1297 9.25442 5.28429 9.25442 6.70941C9.25442 8.13453 8.09984 9.28911 6.67472 9.28911ZM8.89666 25.5627H4.44685V11.2464H8.89666V25.5627ZM27.7781 0.00216855H2.21308C1.00527 -0.0111365 0.0147834 0.957178 0 2.16498V27.8349C0.0147834 29.0442 1.00527 30.0125 2.21308 29.9992H27.7781C28.9888 30.014 29.9837 29.0457 30 27.8349V2.1635C29.9823 0.952742 28.9873 -0.0155716 27.7781 0.000690142" fill="black"/>
</svg>
