<svg width="17" height="17" viewBox="0 0 17 17" fill="none" xmlns="http://www.w3.org/2000/svg">
<path d="M15.5863 6.21629L3.68788 0.267093C3.21831 0.0333819 2.68809 -0.0498208 2.16951 0.0288286C1.65092 0.107478 1.16921 0.344152 0.790055 0.706582C0.410898 1.06901 0.152745 1.53956 0.0507922 2.05407C-0.0511601 2.56858 0.00805028 3.10202 0.220351 3.58165L2.26008 8.14553C2.30636 8.25587 2.33019 8.37433 2.33019 8.49399C2.33019 8.61364 2.30636 8.7321 2.26008 8.84244L0.220351 13.4063C0.0475689 13.7945 -0.025474 14.2197 0.00785969 14.6432C0.0411934 15.0668 0.179847 15.4753 0.411219 15.8316C0.642592 16.188 0.959348 16.4809 1.3327 16.6837C1.70605 16.8865 2.12416 16.9927 2.54904 16.9928C2.94698 16.9889 3.339 16.8959 3.69638 16.7209L15.5948 10.7717C16.0168 10.5594 16.3716 10.234 16.6195 9.83177C16.8674 9.42958 16.9986 8.96643 16.9986 8.49399C16.9986 8.02154 16.8674 7.55839 16.6195 7.1562C16.3716 6.75401 16.0168 6.42861 15.5948 6.21629H15.5863ZM14.8299 9.25038L2.93149 15.1996C2.77524 15.2746 2.5998 15.3001 2.42868 15.2725C2.25756 15.245 2.09894 15.1658 1.9741 15.0456C1.84926 14.9254 1.76415 14.7699 1.7302 14.5999C1.69625 14.43 1.71507 14.2537 1.78414 14.0947L3.81537 9.53085C3.84166 9.4699 3.86436 9.40747 3.88336 9.34387H9.73907C9.96447 9.34387 10.1806 9.25433 10.34 9.09494C10.4994 8.93556 10.589 8.71939 10.589 8.49399C10.589 8.26858 10.4994 8.05241 10.34 7.89303C10.1806 7.73364 9.96447 7.6441 9.73907 7.6441H3.88336C3.86436 7.5805 3.84166 7.51807 3.81537 7.45712L1.78414 2.89324C1.71507 2.73428 1.69625 2.558 1.7302 2.38804C1.76415 2.21808 1.84926 2.06256 1.9741 1.94234C2.09894 1.82212 2.25756 1.74294 2.42868 1.71543C2.5998 1.68791 2.77524 1.71337 2.93149 1.78839L14.8299 7.73759C14.9691 7.80891 15.0859 7.91726 15.1675 8.05072C15.2491 8.18418 15.2923 8.33757 15.2923 8.49399C15.2923 8.6504 15.2491 8.80379 15.1675 8.93725C15.0859 9.07071 14.9691 9.17906 14.8299 9.25038Z" fill="white"/>
</svg>
